<svg width="636" height="184" viewBox="0 0 636 184" xmlns="http://www.w3.org/2000/svg"><g id="Page-1" stroke="none" stroke-width="1" fill="none" fill-rule="evenodd"><g id="GoFinaces"><rect id="Rectangle" fill="#5636D3" x="0" y="0" width="636" height="184" rx="10"/><g id="logo" transform="translate(43 47)"><path d="M74.302 29.846c.332.446.617.926.85 1.437C88.888 34.785 99 46.377 99 60.099 99 76.586 84.403 90 66.461 90c-9.367 0-17.82-3.657-23.763-9.498H20.14c-4.855 0-8.805-3.63-8.805-8.091 0-2.562 1.304-4.848 3.333-6.332-2.029-1.483-3.333-3.77-3.333-6.332s1.304-4.849 3.333-6.332c-2.029-1.484-3.333-3.77-3.333-6.332s1.304-4.849 3.333-6.332c-2.029-1.484-3.333-3.77-3.333-6.332 0-4.461 3.95-8.091 8.805-8.091h4.991c-.974-1.302-1.546-2.877-1.546-4.573 0-1.696.572-3.271 1.546-4.573H9.805C4.95 17.182 1 13.552 1 9.09 1 4.63 4.95 1 9.805 1h46.894c4.855 0 8.805 3.63 8.805 8.09 0 1.697-.572 3.272-1.547 4.574h15.328c4.855 0 8.804 3.63 8.804 8.09 0 4.462-3.95 8.092-8.804 8.092h-4.983zm9.96-8.091c0-2.522-2.233-4.573-4.977-4.573H32.391c-2.745 0-4.977 2.051-4.977 4.573 0 2.521 2.232 4.573 4.977 4.573h46.894c2.744 0 4.977-2.052 4.977-4.573zM4.828 9.09c0 2.521 2.232 4.573 4.977 4.573h46.894c2.744 0 4.977-2.052 4.977-4.573 0-2.522-2.233-4.573-4.977-4.573H9.805c-2.745 0-4.977 2.051-4.977 4.573zm62.207 20.755H20.141c-2.744 0-4.977 2.051-4.977 4.573 0 2.522 2.233 4.573 4.977 4.573h23.294c5.894-5.43 14.04-8.794 23.026-8.794.925 0 1.84.037 2.745.107a5.338 5.338 0 00-2.171-.46zM40.165 42.51H20.14c-2.745 0-4.977 2.051-4.977 4.573 0 2.522 2.232 4.573 4.977 4.573h15.104c1.067-3.325 2.747-6.41 4.92-9.146zm-5.8 12.664H20.142c-2.745 0-4.977 2.051-4.977 4.573 0 2.521 2.232 4.573 4.977 4.573h14.107a27.594 27.594 0 01.118-9.146zM15.165 72.41c0 2.522 2.232 4.573 4.977 4.573h19.48a28.722 28.722 0 01-4.592-9.146H20.141c-2.745 0-4.977 2.051-4.977 4.573zM37.75 60.099c0 14.548 12.88 26.383 28.711 26.383 15.831 0 28.71-11.835 28.71-26.383 0-14.548-12.879-26.383-28.71-26.383-15.831 0-28.71 11.835-28.71 26.383zm23.829-6.012c0 2.137 2.186 3.876 4.873 3.876 5.13 0 9.303 3.565 9.303 7.947 0 3.73-3.024 6.866-7.088 7.718v.879c0 1.124-.992 2.035-2.215 2.035-1.224 0-2.215-.911-2.215-2.035v-.88c-4.064-.85-7.088-3.987-7.088-7.717 0-1.124.991-2.036 2.215-2.036 1.223 0 2.215.912 2.215 2.036 0 2.137 2.186 3.876 4.873 3.876 2.687 0 4.873-1.739 4.873-3.876 0-2.137-2.186-3.876-4.873-3.876-5.13 0-9.303-3.565-9.303-7.947 0-3.73 3.024-6.867 7.088-7.718V45.31c0-1.123.991-2.035 2.215-2.035 1.223 0 2.215.912 2.215 2.035v1.06c4.064.85 7.088 3.987 7.088 7.717 0 1.124-.992 2.035-2.215 2.035-1.223 0-2.215-.911-2.215-2.035 0-2.137-2.186-3.876-4.873-3.876-2.687 0-4.873 1.739-4.873 3.876z" id="Shape" fill="#FF872C"/><path d="M75.287 30.858l-.67.31.147.32.342.086.18-.716zm-.855-1.429v-.737h-1.48l.89 1.18.59-.443zM42.659 79.815l.514-.529-.214-.209h-.3v.738zM14.48 65.469l.433.597.826-.597-.826-.598-.433.598zm0-12.597l.433.598.826-.598-.826-.597-.433.597zm0-12.596l.433.598.826-.598-.826-.597-.433.597zM25 25.93v.738h1.483l-.895-1.183-.588.445zm0-9.097l.588.445.895-1.183H25v.738zm39.032-3.499l-.59-.445-.894 1.183h1.484v-.738zM43.4 38.527v.737h.286l.211-.192-.497-.545zm25.91-8.64l-.057.735.354-1.41-.298.674zM40.111 42.025l.576.461.963-1.199h-1.539v.738zm-4.946 9.097v.738h.537l.165-.51-.702-.228zm-.884 3.499l.726.133.16-.87h-.886v.737zm-.118 9.097v.738h.862l-.133-.851-.73.113zm5.402 12.597v.738h1.482l-.893-1.183-.589.445zm-4.617-9.098l.708-.208-.156-.53h-.552v.738zm33.818 5.76l-.15-.723-.588.122v.6h.738zm-4.454 0h.738v-.601l-.588-.122-.15.722zm0-27.113l.15.722.588-.122v-.6h-.738zm4.454 0h-.738v.6l.588.122.15-.722zm7.19-15.316a8.554 8.554 0 00-.936-1.563l-1.18.887c.304.402.563.835.775 1.294l1.34-.618zM100 59.521c0-14.038-10.448-25.824-24.533-29.378l-.361 1.43c13.534 3.415 23.418 14.688 23.418 27.948H100zM66.55 90C84.926 90 100 76.392 100 59.521h-1.476c0 15.928-14.277 29.004-31.975 29.004V90zm-24.406-9.657C48.257 86.288 56.94 90 66.549 90v-1.475c-9.227 0-17.54-3.565-23.376-9.239l-1.03 1.057zm-22.163.21h22.678v-1.476H19.98v1.476zm-9.59-8.786c0 4.91 4.369 8.786 9.59 8.786v-1.476c-4.54 0-8.114-3.344-8.114-7.31h-1.476zm3.657-6.896c-2.208 1.598-3.657 4.083-3.657 6.896h1.476c0-2.284 1.174-4.346 3.046-5.7l-.865-1.196zm-3.657-5.7c0 2.813 1.449 5.299 3.657 6.895l.865-1.195c-1.872-1.353-3.046-3.416-3.046-5.7h-1.476zm3.657-6.896c-2.208 1.597-3.657 4.083-3.657 6.896h1.476c0-2.284 1.174-4.347 3.046-5.7l-.865-1.196zm-3.657-5.7c0 2.812 1.449 5.298 3.657 6.895l.865-1.195c-1.872-1.354-3.046-3.417-3.046-5.7h-1.476zm3.657-6.896c-2.208 1.597-3.657 4.083-3.657 6.896h1.476c0-2.285 1.174-4.347 3.046-5.701l-.865-1.195zm-3.657-5.7c0 2.812 1.449 5.298 3.657 6.895l.865-1.195c-1.872-1.354-3.046-3.417-3.046-5.7h-1.476zm9.59-8.786c-5.221 0-9.59 3.876-9.59 8.785h1.476c0-3.966 3.574-7.31 8.114-7.31v-1.475zm5.019 0H19.98v1.475H25v-1.475zm-2.293-3.811c0 1.859.634 3.58 1.704 4.993l1.177-.89c-.89-1.176-1.405-2.588-1.405-4.103h-1.476zm1.704-4.994c-1.07 1.414-1.704 3.135-1.704 4.994h1.476c0-1.515.515-2.928 1.405-4.104l-1.177-.89zM9.59 17.571H25v-1.476H9.59v1.476zM0 8.785c0 4.91 4.369 8.786 9.59 8.786v-1.476c-4.54 0-8.114-3.344-8.114-7.31H0zM9.59 0C4.369 0 0 3.876 0 8.785h1.476c0-3.965 3.573-7.31 8.114-7.31V0zm47.145 0H9.59v1.475h47.145V0zm9.59 8.785c0-4.909-4.369-8.785-9.59-8.785v1.475c4.54 0 8.113 3.345 8.113 7.31h1.477zM64.62 13.78c1.07-1.414 1.705-3.134 1.705-4.994h-1.477c0 1.515-.515 2.928-1.405 4.104l1.177.89zm14.821-1.183h-15.41v1.476h15.41v-1.476zm9.59 8.786c0-4.91-4.368-8.786-9.59-8.786v1.476c4.54 0 8.114 3.344 8.114 7.31h1.476zm-9.59 8.785c5.222 0 9.59-3.876 9.59-8.785h-1.476c0 3.966-3.573 7.31-8.114 7.31v1.475zm-5.01 0h5.01v-1.475h-5.01v1.475zm5.01-12.596c2.419 0 4.265 1.774 4.265 3.81h1.477c0-2.979-2.642-5.286-5.742-5.286v1.476zm-47.145 0h47.145v-1.476H32.296v1.476zm-4.265 3.81c0-2.036 1.847-3.81 4.265-3.81v-1.476c-3.099 0-5.74 2.307-5.74 5.287h1.475zm4.265 3.812c-2.418 0-4.265-1.775-4.265-3.811h-1.476c0 2.98 2.642 5.286 5.741 5.286v-1.475zm34.83 0h-34.83v1.475h34.83v-1.475zm12.315 0H67.126v1.475h12.315v-1.475zm4.265-3.811c0 2.036-1.846 3.81-4.265 3.81v1.476c3.1 0 5.742-2.307 5.742-5.286h-1.477zM9.59 12.596c-2.419 0-4.265-1.774-4.265-3.81H3.849c0 2.979 2.642 5.286 5.74 5.286v-1.476zm47.145 0H9.59v1.476h47.145v-1.476zM61 8.786c0 2.036-1.847 3.81-4.265 3.81v1.476c3.099 0 5.741-2.307 5.741-5.287H61zm-4.265-3.812C59.153 4.974 61 6.75 61 8.785h1.476c0-2.98-2.642-5.286-5.741-5.286v1.475zm-47.145 0h47.145V3.5H9.59v1.475zM5.325 8.785c0-2.036 1.846-3.81 4.265-3.81V3.498c-3.1 0-5.741 2.307-5.741 5.286h1.476zM19.98 30.167h47.145v-1.475H19.981v1.475zm-4.265 3.811c0-2.037 1.847-3.81 4.265-3.81v-1.476c-3.099 0-5.741 2.306-5.741 5.286h1.476zm4.265 3.811c-2.418 0-4.265-1.775-4.265-3.81H14.24c0 2.979 2.642 5.285 5.741 5.285V37.79zm23.419 0H19.981v1.475H43.4V37.79zm23.15-8.747c-9.217 0-17.585 3.414-23.648 8.94l.995 1.09c5.789-5.276 13.801-8.555 22.652-8.555v-1.475zm2.815.109c-.927-.071-1.866-.11-2.816-.11v1.476c.91 0 1.811.037 2.704.105l.112-1.471zm-2.239 1.016c.67 0 1.312.142 1.886.394l.595-1.35a6.156 6.156 0 00-2.481-.52v1.476zM19.981 42.764h20.131v-1.476H19.981v1.476zm-4.265 3.81c0-2.036 1.847-3.81 4.265-3.81v-1.476c-3.1 0-5.741 2.307-5.741 5.287h1.476zm4.265 3.812c-2.418 0-4.265-1.775-4.265-3.811H14.24c0 2.98 2.642 5.286 5.741 5.286v-1.475zm15.185 0H19.98v1.475h15.185v-1.475zm4.37-8.822c-2.238 2.787-3.97 5.935-5.072 9.332l1.404.454c1.044-3.218 2.689-6.208 4.82-8.863l-1.152-.923zM19.981 55.36h14.301v-1.476H19.981v1.476zm-4.265 3.81c0-2.036 1.847-3.81 4.265-3.81v-1.476c-3.1 0-5.741 2.307-5.741 5.287h1.476zm4.265 3.812c-2.418 0-4.265-1.775-4.265-3.811H14.24c0 2.98 2.642 5.286 5.741 5.286v-1.475zm14.183 0H19.98v1.475h14.183v-1.475zm-1.066-3.461c0 1.464.116 2.904.336 4.312l1.459-.227a26.466 26.466 0 01-.319-4.085h-1.476zm.458-5.032a27.89 27.89 0 00-.458 5.032h1.476c0-1.623.15-3.215.434-4.766l-1.452-.266zM19.981 75.58c-2.418 0-4.265-1.775-4.265-3.812H14.24c0 2.98 2.642 5.287 5.741 5.287v-1.476zm19.585 0H19.981v1.475h19.585v-1.476zm-5.325-8.152c.997 3.38 2.616 6.527 4.736 9.333l1.178-.889c-2.017-2.67-3.553-5.659-4.498-8.861l-1.416.417zm-14.26.53h14.968V66.48H19.981v1.475zm-4.265 3.81c0-2.036 1.847-3.81 4.265-3.81V66.48c-3.1 0-5.741 2.306-5.741 5.286h1.476zm50.833 13.259c-15.575 0-28.126-11.507-28.126-25.505h-1.476c0 14.941 13.346 26.98 29.602 26.98v-1.475zM94.675 59.52c0 13.998-12.55 25.505-28.126 25.505V86.5c16.256 0 29.602-12.039 29.602-26.98h-1.476zM66.549 34.016c15.575 0 28.126 11.506 28.126 25.505h1.476c0-14.942-13.346-26.98-29.602-26.98v1.475zM38.423 59.521c0-13.999 12.55-25.505 28.126-25.505v-1.475c-16.256 0-29.602 12.038-29.602 26.98h1.476zm28.117-2.863c-2.468 0-4.161-1.553-4.161-3.117h-1.477c0 2.688 2.703 4.593 5.638 4.593v-1.476zm10.09 8.643c0-4.877-4.646-8.643-10.09-8.643v1.476c4.87 0 8.615 3.327 8.615 7.167h1.476zM68.917 73.7c4.335-.899 7.715-4.252 7.715-8.4h-1.476c0 3.274-2.702 6.16-6.538 6.955l.3 1.445zm.589.152v-.875h-1.476v.875h1.476zm-2.965 2.762c1.57 0 2.965-1.172 2.965-2.762h-1.476c0 .646-.6 1.287-1.49 1.287v1.475zm-2.965-2.762c0 1.59 1.395 2.762 2.965 2.762V75.14c-.89 0-1.49-.64-1.49-1.287h-1.475zm0-.875v.875h1.476v-.875h-1.476zm-7.126-7.676c0 4.147 3.38 7.5 7.714 8.399l.3-1.445c-3.837-.795-6.538-3.68-6.538-6.954h-1.476zm2.965-2.763c-1.57 0-2.965 1.173-2.965 2.763h1.476c0-.646.6-1.287 1.489-1.287v-1.476zm2.965 2.763c0-1.59-1.395-2.763-2.965-2.763v1.476c.889 0 1.488.64 1.488 1.287h1.477zm4.16 3.118c-2.467 0-4.16-1.554-4.16-3.118h-1.477c0 2.688 2.703 4.593 5.638 4.593v-1.475zm4.162-3.118c0 1.564-1.693 3.118-4.161 3.118v1.475c2.935 0 5.637-1.905 5.637-4.593h-1.476zm-4.161-3.118c2.468 0 4.16 1.554 4.16 3.118h1.477c0-2.688-2.702-4.593-5.637-4.593v1.475zm-10.091-8.642c0 4.877 4.647 8.642 10.09 8.642v-1.475c-4.87 0-8.614-3.327-8.614-7.167h-1.476zm7.714-8.399c-4.335.899-7.714 4.252-7.714 8.4h1.476c0-3.274 2.701-6.16 6.538-6.955l-.3-1.445zm-.588-.33v1.053h1.476V44.81h-1.476zm2.965-2.763c-1.57 0-2.965 1.173-2.965 2.762h1.476c0-.646.6-1.286 1.489-1.286v-1.476zm2.965 2.762c0-1.59-1.395-2.762-2.965-2.762v1.476c.889 0 1.489.64 1.489 1.286h1.476zm0 1.054V44.81h-1.476v1.054h1.476zm7.126 7.676c0-4.147-3.38-7.5-7.715-8.399l-.3 1.445c3.837.795 6.539 3.68 6.539 6.954h1.476zm-2.965 2.762c1.57 0 2.965-1.172 2.965-2.762h-1.476c0 .646-.6 1.287-1.489 1.287v1.475zm-2.965-2.762c0 1.59 1.395 2.762 2.965 2.762v-1.475c-.89 0-1.489-.64-1.489-1.287h-1.476zm-4.161-3.118c2.468 0 4.16 1.554 4.16 3.118h1.477c0-2.688-2.702-4.593-5.637-4.593v1.475zm-4.161 3.118c0-1.564 1.693-3.118 4.16-3.118v-1.475c-2.934 0-5.637 1.905-5.637 4.593h1.477z" id="Shape" fill="#FF872C" fill-rule="nonzero"/><path d="M155 44.707c0 11.923 7.926 19.988 18.237 19.988 7.015 0 11.995-3.717 14.31-7.855v8.066c0 8.205-5.12 12.553-11.925 12.553-6.313 0-10.872-3.155-12.275-7.784h-6.313C158.297 77.88 165.522 83 175.622 83 186.915 83 194 75.496 194 64.906V25.63h-6.453v7.013c-2.245-4.137-7.295-7.644-14.31-7.644C162.927 25 155 32.715 155 44.707zm32.547.07c0 9.048-6.033 14.308-13.047 14.308s-12.977-5.33-12.977-14.378c0-9.047 5.963-14.166 12.977-14.166s13.047 5.33 13.047 14.237zM241 44.93C241 32.702 232.482 25 221.5 25c-10.912 0-19.5 7.703-19.5 19.93C202 57.225 210.307 65 221.218 65 232.2 65 241 57.226 241 44.93zm-32.453 0c0-9.753 6.124-14.347 12.883-14.347 6.617 0 13.023 4.594 13.023 14.346 0 9.824-6.547 14.417-13.235 14.417-6.687 0-12.671-4.593-12.671-14.417z" id="Shape" fill="#FFF" fill-rule="nonzero"/><path d="M253.61 64h8.156V31.37H269v-6.625h-7.234v-2.779c0-4.488 1.702-6.198 6.667-6.198V9c-10.213 0-14.823 3.918-14.823 12.966v2.779H249v6.625h4.61V64z" id="Path" fill="#FFF" fill-rule="nonzero"/><path d="M276.034 64h7.863V24.643h-7.863V64zm4-44.571c2.76 0 4.966-2.286 4.966-5.215C285 11.286 282.793 9 280.034 9 277.207 9 275 11.286 275 14.214c0 2.929 2.207 5.215 5.034 5.215z" id="Shape" fill="#FFF" fill-rule="nonzero"/><path d="M323.153 64H331V40.786c0-11-6.736-16.786-15.694-16.786-4.584 0-8.82 1.929-11.39 5.143v-4.5H296V64h7.917V42c0-7.214 3.82-10.929 9.652-10.929 5.764 0 9.584 3.715 9.584 10.929v22z" id="Path" fill="#FFF" fill-rule="nonzero"/><path d="M338 44.32C338 56.57 346.127 65 356.233 65c6.502 0 11.166-3.17 13.64-6.557v5.908H378V24.65h-8.127v5.764C367.47 27.17 362.947 24 356.375 24 346.127 24 338 32.07 338 44.32zm31.873.144c0 8.575-5.725 13.402-11.802 13.402-6.007 0-11.802-4.971-11.802-13.546s5.795-13.186 11.802-13.186c6.077 0 11.802 4.827 11.802 13.33z" id="Shape" fill="#FFF" fill-rule="nonzero"/><path d="M416.153 64H424V40.786c0-11-6.736-16.786-15.694-16.786-4.584 0-8.82 1.929-11.39 5.143v-4.5H389V64h7.917V42c0-7.214 3.82-10.929 9.652-10.929 5.764 0 9.584 3.715 9.584 10.929v22zM432 44.464C432 56.93 439.908 65 451.065 65c9.532 0 15.746-5.404 17.935-13.186h-8.685c-1.483 4.107-4.449 6.269-9.25 6.269-6.496 0-10.804-4.9-10.804-13.619 0-8.647 4.308-13.547 10.804-13.547 4.801 0 7.908 2.45 9.25 6.27H469C466.811 28.826 460.597 24 451.065 24 439.908 24 432 32.07 432 44.464z" id="Path" fill="#FFF" fill-rule="nonzero"/><path d="M493.392 30.917c6.105 0 10.917 3.891 11.061 10.016h-21.906c.862-6.269 5.315-10.016 10.845-10.016zm18.53 21.617h-8.834c-1.508 3.099-4.309 5.549-9.337 5.549-6.033 0-10.701-3.963-11.276-10.52h30.238c.215-1.37.287-2.667.287-4.036C513 31.854 505.028 24 493.751 24 482.044 24 474 31.998 474 44.464 474 56.93 482.403 65 493.751 65c9.697 0 15.945-5.548 18.172-12.466z" id="Shape" fill="#FFF" fill-rule="nonzero"/><path d="M550 53.255c-.422-14.34-22.283-9.872-22.283-17.87 0-2.666 2.249-4.468 6.537-4.468 4.358 0 6.96 2.378 7.24 5.837h8.014C549.086 28.828 543.322 24 534.535 24c-9.138 0-14.902 5.116-14.902 11.457 0 14.555 22.494 10.088 22.494 17.87 0 2.738-2.46 4.756-7.1 4.756-4.428 0-7.451-2.666-7.732-5.909H519C519.351 59.38 525.889 65 535.168 65 544.306 65 550 59.956 550 53.255z" id="Path" fill="#FFF" fill-rule="nonzero"/></g></g></g></svg>